<svg xmlns="http://www.w3.org/2000/svg" viewBox="0 0 512 512">
	<path fill="#E31E24" d="M471.6 73.6C438-3.3 344.7-17 288 43.5 231.3-17 138-3.3 104.4 73.6 75.2 138.9 86.7 214 128 267.8c29.2 37.8 72.3 76 160 162.2 87.7-86.2 130.8-124.4 160-162.2C425.3 214 436.8 138.9 471.6 73.6z"/>
	<path fill="#FFFFFF" d="M24 232h136.2c5.4 0 10.3 3.1 12.6 8l19.9 41.6 33.2-137.9c1.4-5.7 6.4-9.7 12.3-10 5.9-.3 11.2 3.4 13 9.1l57 180.4 24.3-106.4c1.3-5.9 6.3-10.2 12.3-10.6 6-.3 11.6 3.1 13.8 8.7l22.8 56.9 22.6-52.9c2.1-5 7-8.2 12.5-8.2H488c-5.5 11.5-12.2 23-20.1 34.6-6.6 9.6-14.4 19.6-23.4 30.4h-36.2c-5.1 0-9.8-3-12-7.7l-8.7-19.1-25.4 59.6c-2.1 4.9-6.8 8-12.1 8.1-5.3.1-10.1-3-12.3-7.8L319 296.7l-25.5 112c-1.3 5.7-6.2 9.8-12 10.2-5.8.4-11.2-2.9-13.3-8.3l-61.2-162.2-25 104c-1.3 5.6-6.1 9.6-11.8 10.1-5.7.4-11-2.7-13.3-8l-28.3-59.3H38.7c-5.6-7.5-10.6-14.9-15-22.2-0.8-1.3-1.7-2.7-2.5-4.1z"/>
</svg>

